<?xml version="1.0" encoding="UTF-8"?>
<svg version="1.1" viewBox="0 0 2048 1743" width="1280" height="1280" xmlns="http://www.w3.org/2000/svg">
<path transform="translate(1006,16)" d="m0 0h55l35 2 38 4 38 6 28 6 40 10 29 9 32 11 30 12 29 13 25 12 28 15 27 16 19 12 22 15 19 14 14 11 11 8h9l6 3 4 5 2 4 1 76 11-18 9-11 6-7h2v-2l11-9 15-10 16-8 14-5 15-4 12-2 11-1h22l24 3 28 7 25 10 18 10 13 10 11 10 11 14 9 15 8 19 5 18 3 15 2 24v16l-1 21-4 29-5 24-10 37-7 16-2 5 16 8 12 7 13 10 12 11 8 9 10 15 8 17 5 18 2 17v16l-2 18-6 25-8 21-10 19-8 10-8 7-284 284 24-10 44-19 38-16 70-30 108-46 26-11 14-3h38l18 3 21 7 17 9 10 8 10 10 9 14 6 14 4 15 2 13v33l-3 23-5 21-7 16-7 12-11 12-9 8-16 8-13 4-7 1h-21l-16-3-19-7-12-7-12-9-13-13-3-4v265l-1 27-8 4-24 6-320 73-192 44h-3l2 7-2 7-8 8-14 10-18 13-19 14-18 13-19 14-18 13-19 14-36 26-57 42-18 13-19 14-17 12-8 3h-12l-9-4-17-12-76-56-36-26-38-28-14-10-19-14-18-13-19-14-18-13-16-12-7-6-2-5 1-8 1-2-12-2-521-119-10-3-5-5v-290l-1 1-13 14-10 8-15 9-15 6-16 4-7 1h-21l-14-3-16-7-9-7-10-9-9-13-8-16-6-20-4-27-1-24 2-22 4-16 6-15 7-11 11-13 13-10 15-8 18-6 14-3 8-1h38l10 2 16 6 27 12 141 60 49 21 45 19 37 16-12-11-18-18-4-5-2-1v-2l-3-1v-2h-2v-2h-2l-4-5-5-4-7-8-58-58-5-4-3-3v-2l-4-2-4-5-5-4-4-5-29-29-5-4-7-8-6-5-4-5-5-4-7-8-6-5-7-8-83-83-9-21-6-16-5-19-3-20v-26l2-13 4-15 8-18 10-15 10-11 5-5 11-10 15-10 16-8 3-2-8-18-5-15-8-30-5-26-3-22-1-13v-36l2-18 5-22 7-19 8-16 10-14 11-12 10-9 15-10 23-11 24-8 23-5 19-2h22l17 2 21 5 16 6 17 9 14 10 10 9 9 9 11 15 7 13v-73l2-7 6-7 4-2h10l9-5 16-11 17-11 24-15 24-14 25-14 33-17 27-13 30-13 39-15 36-12 27-8 36-9 39-8 40-6 42-4zm13 12-41 2-39 4-38 6-39 8-46 12-40 13-37 14-35 15-50 24-22 12-25 14-28 17-25 16-24 16v823l-1 14h41l1-1 1-383v-432l2-3 9-1 17-10 24-14 29-15 24-12 29-13 40-16 28-10 30-10 43-12 39-9 39-7 36-5 46-4 30-1h25l41 2 32 3 35 5 35 7 36 9 35 11 30 11 28 12 30 14 30 16 25 15 22 14 17 12 14 9 1 5-1 25v199l1 588 1 1h41v-836l-11-10-20-15-17-12-15-10-19-12-20-12-29-16-30-15-34-15-37-14-40-13-38-10-32-7-30-5-31-4-38-3-22-1zm0 64-44 3-34 4-41 7-37 8-35 9-45 14-31 11-35 14-27 12-29 14-22 11-23 13-17 10-14 9-1 193v614h876l1-3v-91l-1-717-15-11-26-17-15-9-22-13-29-15-25-12-29-12-27-10-28-9-34-9-33-7-38-6-29-3-32-2zm-670 124-20 3-23 6-21 8-17 9-16 12-11 11-10 14-9 17-7 21-4 21-2 22v16l2 26 5 31 8 32 10 32 4 8 4 1 16-3h29l19 4 19 7 18 10 13 10 10 9 9 10 10 15 7 15 5 16 2 15v10l-2 15-5 16-5-1-6-2 5-17 1-5v-21l-4-17-9-19-10-14-11-12-14-11-13-8-15-7-17-5-14-2h-16l-18 3v3l17 33 29 56 17 33 14 27 30 58 10 19 8 16 12 23 28 54 16 31 10 19 28 54 19 37 10 19 4 9h1v-637h-2l-5 10-10 14-9 10-12 9-16 8-15 4-6 1h-17l-15-3-16-7-11-7-13-11-9-11-9-14-5-9 6-2 5-2 8 14 11 14 7 7 14 10 16 7 10 2h20l16-4 13-7 10-8 8-8 9-13 7-14 5-17 1-6v-21l-4-18-5-13-9-16-11-13-10-10-15-11-15-8-16-6-16-4-14-2zm1315 0-19 3-16 5-15 6-18 11-10 9-6 5v2h-2l-11 14-9 16-5 13-3 14-1 8v12l4 20 7 16 8 13 8 10h2v2l13 10 12 6 15 4h21l15-4 14-7 10-8 12-12 7-10 6-11v-2l9 3h3l-3 7-8 14-11 13-9 9-15 10-14 6-12 3-7 1h-17l-14-3-15-6-11-7-12-11-8-9-10-16-3-4v636l2-3 12-24 9-16 8-16 24-47 24-46 10-19 21-41 10-19 18-35 14-27 10-19 20-39 10-19 20-39 10-19 15-29 17-33v-3l-8-2-8-1h-20l-18 3-17 6-16 8-11 8-13 11-9 10-9 13-8 16-4 13-2 12v9l2 14 5 15-5 1-6 2-5-14-2-11v-22l3-14 6-17 8-14 9-12 9-10 11-10 15-10 16-8 16-6 19-4 18-1 20 2 12 1 7-19 10-35 6-29 4-32v-36l-3-24-5-19-6-16-9-16-11-14-9-9-14-10-16-9-21-8-21-6-16-3-9-1zm149 302-10 19-17 33-10 19-17 33-10 19-18 35-10 19-18 35-15 29-14 27-12 23-15 29-14 27-12 23-20 39-10 19-15 29-18 35-7 14 1 2 8-7 12-11 16-17 279-279 9-16 8-21 5-17 3-19v-25l-3-17-5-15-8-15-11-14-11-11-13-10-13-8-14-6zm-1583 4-19 10-11 8-14 12-11 13-9 15-7 18-3 16-1 11v10l2 18 5 21 6 17 9 19 8 10 303 303 4 3 2-1-8-17-10-19-14-27-17-33-56-108-15-29-10-19-20-39-12-23-15-29-17-33-10-19-18-35-12-23-14-27-12-23zm-118 373-23 3-20 6-13 7-9 7-10 10-8 13-5 13-3 11-2 14v27l3 24 5 20 7 16 8 12 10 10 13 8 12 4 13 2h10l17-3 14-5 15-8 10-8 8-7 10-14 5-12 2-10-1-14-3-10-6-11-9-11-10-9-18-12-7-4 1-5 2-6 12 6 12 8 10 8 7 6 11 14 7 14 3 12 1 16 1 1h284l-2-2-31-13-56-24-26-11-108-46-77-33-24-10-12-3-8-1zm1799 0-14 2-14 5-44 19-45 19-42 18-54 23-117 50-13 5-1 2h281l3-1 2-19 4-12 7-13 11-13 11-10 15-10 10-6 4-1 1 5 2 3v3l-14 8-12 9-12 11-9 12-5 11-2 8v15l5 16 7 11 9 10 8 7 14 9 14 6 16 4 8 1h10l16-3 12-5 9-6 9-8 7-10 8-16 4-14 3-13 3-27v-15l-3-23-6-18-6-11-9-11-10-9-12-7-17-6-14-3-17-2zm-334 124m-1383 33v303l5 2 18 4h5v-309zm41 0-1 128v184l9 3 16 4h4v-23l-2-141-1-95-1-60zm37 0-1 2 3 268 1 51 7 3 8 2h6l1-70 2-199v-57zm40 0-1 40-3 234v55l5 2 17 4h6v-63l2-236v-36zm39 0-1 1-2 233-1 103 1 2 355 81 32 7 16 3 17 5 67 15 28 6 16 4 100 23 41 9 11-1 74-17 57-13 14-4 25-5 83-19 19-5 25-5 285-65 66-15 17-4 1-1v-46l-1-100-1-159-1-33zm1356 0-1 2 3 333 10-1 16-4 1-1v-96l-2-134-1-99zm38 0v24l1 88 1 126 2 88 9-1 11-3 1-34 1-63 1-118 1-81v-26zm41 0-1 1-2 172-1 55v91l21-4 7-2v-304l-1-9zm37 0-1 2v46l1 261 10-1 16-4 2-1v-302l-1-1zm-1046 449 3 3 17 12 19 14 18 13 19 14 18 13 53 39 19 14 14 10 18 13 19 14 18 13 10 7 11-7 13-10 14-10 18-13 12-9 18-13 19-14 18-13 38-28 18-13 19-14 18-13 19-14 11-7-3-1-69 16-16 4-11 7-15 12-13 10-18 14-17 13-14 11-26 20-18 14-13 10-8 5-5 1-7-2-18-14-17-13-15-12-17-13-18-14-17-13-36-28-11-7-13-4-66-15zm118 27 4 4 16 12 26 20 36 28 26 20 18 14 5-2 14-11 18-14 26-20 18-14 13-10 18-14 17-12-3-1-121 28h-8l-51-12-66-15z" fill="#D59B3D"/>
<path transform="translate(1188,198)" d="m0 0 7 1 2 2v6l-10 18-13 21-13 22-48 80-11 19-11 17-10 16-12 19-3 5-1 7-9-1h-21l-9 2-15 9-14 7-8 7-9 14-8 17-3 11v19l5 13 9 11 13 8 15 6 8 1h9l16-4 16-8 16-12 8-9 6-10 4-14 1-6v-18l-3-12-5-12-7-10v-3l12-18 13-21 16-25 7-12 1-5h154l6 5 1 6-9 10-15 14-19 19-8 7-21 21-8 7-23 23-8 7-20 20-8 7-20 20-8 7-23 23-8 7-21 21-8 7-20 20-6 5-1 20v305l21 16 11 8 32 24 13 10 2 3v6l-5 6h-176l-4-5-1-6 7-8 11-8 21-16 19-14 20-15h2v-141l-1-184-22-22-8-7-24-24-8-7-17-17-8-7-27-27-8-7-24-24-8-7-16-16-8-7-20-20-8-7-26-26-8-7-12-12-1-7 6-6 326-1 7-10 12-20 12-19 30-48 32-52 6-7z" fill="#D59B3D"/>
<path transform="translate(751,609)" d="m0 0 7 1 8 14 25 50 9 3 58 9 7 3 2 5-4 6-13 13-8 7-16 15-7 6-1 5 8 62v13l-4 4-7-1-22-11-38-20-4 1-25 14-35 20-7 1-5-5 1-12 9-57 1-6-16-17-22-22-7-8-4-5-1-5 5-5 33-5 29-4 4-1 14-24 13-22 9-16zm-93 88v2l2-1z" fill="#D59B3D"/>
<path transform="translate(1290,608)" d="m0 0 5 2 9 17 9 15 17 29 4 6 2 1 58 8 9 3 1 7-7 9-12 12-7 8-23 23 2 17 8 50v11l-4 3-7-1-11-6-25-14-16-9-10-6-5 1-19 10-23 12-18 9h-5l-3-3-1-9 8-63v-8l-12-12-8-7-16-15-8-7-4-6 1-6 8-3 62-10 5-3 9-17 22-44z" fill="#D59B3D"/>
<path transform="translate(928,1227)" d="m0 0v3l-10 10v95l2 1 1-95 6-7 4-3h2l-1 5-7 6v93l7 8 6 7v2h-48v-3h41l-1-3-6-1h-38l2-4 8-6 1-2 1-36-8 1h-24l1 39 4 2 9 11v2h-48v-3l41-1v-3h-44l1-4 8-6 1-3 1-38-14 7 1-4 8-5 5-1v-2l-11 4-3 3h-3l1-5 4-6 11-6v-38l-7-8-4-3v-2h43l-6 7-5 6-1 38h4v-38l7-8 5-2-1 4-7 8-1 37h32l-1-41-7-7-3-2v-2zm-70 64 1 45 4 1v-43l2 1h28l5-2v-2z" fill="#D59B3D"/>
<path transform="translate(590,1083)" d="m0 0h42l-6 7-2 3 2 9 11 28 1 1-1-7-10-27 2-5 7-8h3l-2 5-5 6 2 9 8 22v2l9-5 3 9 4 8v2l-16 1 10 28 7 17 5 4-6-12-12-31v-3h17l-5-10-3-8 1-3 3 3 9 19v3l-17-1 11 30 6 11 12 11 4 3v2h-53v-3l44-1-2-2-47-1 1-3 9-7-1-5-7-19-4 2-10 13-3 1 1-4 6-8 7-8 1-3-5 3-8 9-4 7h-2l-12-17-3-2-3 12-2 13 3 9 9 12v2h-50v-3h44l-2-3-47-1 3-3 6-4 5-4 9-13 7-16 4-12v-3l-11-3-1-3 5-9 2-5 8 6 3 1-1-3-7-6 1-2 5 1 3 3h2l10-27v-5l-5-5zm14 21-12 32v4l9 11 6 8 3-1-1-4-12-14 1-7 9-22-1-6zm4 10-8 22v4l3 3h2l2 4 5 6 4-2 4-5-1-8-9-23zm-21 37-7 20-1 5v7l3 8 4 3-2-8v-10l4-15 2-4v-5z" fill="#D59B3D"/>
<path transform="translate(465,1081)" d="m0 0h27l13 4 8 6 7 8 3 8v10l-3 9-7 7-9 4v1h5l10-6 6-9 2-8-1-10-4-9-4-5 1-2 5 4 5 8 2 8v10l-3 8-6 8-9 5-1 2 5 2 5 5 5 8 2 6v11l-3 10-8 9-8 4-9 2h-72l2-4 8-6 1-5 1-34h-14l1-3 12-2 1-3-15 1 1-6 2-3 11-1v-31l-9-6 1-3 14-7 13-4zm6 8-11 4-1 1v40h4v-31l1-6 6-2 13-1 9 3 7 8v2l-7-7-10-4h-7l-8 3-1 1v34h13l10-2 8-5 4-5 2-5 1-9-4-9-5-6-9-4zm-12 53-1 2 1 47h4l1-44 25 1 8 3 5 4 4 7 1-3-4-8-8-6-7-2-8-1zm7 8v41h19l8-2 8-5 4-6 1-3v-12l-9-9-11-4z" fill="#D59B3D"/>
<path transform="translate(727,1081)" d="m0 0h22l12 3 11 6 8 9 3 10-2 13-6 8-8 6-8 4-6 1 7 16 9 16 10 14 6 7 6 5-4 3-12 5-12 7h-2l-3-13-6-25-7-22v-2l-17 4v33l9 9 5 6v2h-47v-3l39-1v-2l-44-1 1-3 6-5h2l1-4 1-28-12 2 1-3 11-3-2-3-12 1 2-10 11-1 1-44-6-2-3-3 12-6 16-5zm3 7-10 3v49l4-1v-44l8-1h11l9 3 6 5v2l-9-6-8-2h-9l-5 2v41l11-2 10-4 9-6 4-7 2-10-3-10-5-6-10-5-4-1zm7 57-16 3-2 2 1 38 4 4 1-2-1-14v-23l11-1 8-3v-4zm-12 47m1 1m1 1 2 3 2-1z" fill="#D59B3D"/>
<path transform="translate(1406,1081)" d="m0 0h21l12 3 10 5 8 8 4 10v9l-3 8-8 9-7 4-11 5 5 13 10 18 12 16 10 10-4 3-12 5-12 7h-2l-7-32-8-25-1-5-16 4h-2l1 9 1 25 14 14v2h-48v-3l40-1-1-2-4-1h-39v-3l9-7 1-10v-20l-11 2 1-3 10-4-1-2-12 2 1-9 1-2h11v-44l-8-4 1-3 13-6 13-4zm2 7-9 3-1 1v48l5-1v-43l8-2h10l10 3 5 4 3 3-1-4-5-6-10-5-3-1zm3 8-5 2v41l10-2 11-4 9-7 4-7 1-4v-8l-2-3h-2l-10-6-7-2zm5 49-18 3-1 3 1 37 6 5-1-22v-17l16-4 2-1v-4zm-12 48v2l2-1z" fill="#D59B3D"/>
<path transform="translate(1028,1083)" d="m0 0h46l-4 4-6 4 1 5 8 16 24 47 7 13-1-8-9-19-10-19-15-29-1-5 10-7 5-1-2 4-8 5 1 5 10 19 19 38 1 1v-53l-2-9-5-6-7-4v-1h41l-5 4-6 4-4 8-1 3-1 18v78l-1 1h-16l-10-19-10-20-20-38-1-1 1 59 3 9 7 8 4 4v2l3 1v2h-153v-3l99-1 1-4-9-11-8-14 1-2 4 4 10 14 6 7 4-1 5-4 4-8 1-5 1-23v-61l-8-7zm20 23v54l1 18 2 8 6 8 2-1-4-8-2-12v-59l-3-8zm-22 93-1 4h42v-3l-2-1z" fill="#D59B3D"/>
<path transform="translate(1142,1083)" d="m0 0h52l12 3 9 5 7 6 8 12 4 12 1 7v24l-2 12-5 12-6 9-7 6-10 5-12 3h-53l1-3 9-6v-96l-7-8zm30 8-2 1v99h4v-95h16l9 3 3 3-11-3-12-1-2 1v92h12l8-3 9-9 5-11 3-13v-30l-3-13-6-11-7-6-8-3-6-1z" fill="#D59B3D"/>
<path transform="translate(984,1227)" d="m0 0h18l13 4 10 9 7 8 5 10 3 9 2 17-1 18-4 15-5 10-9 10-10 6-10 3h-18l-13-4-10-6-8-8-6-11-4-11-2-13v-13l2-13 4-12 6-10 6-7 10-7 8-3zm2 9-9 4-7 8-5 13-2 12v30l3 15 5 10 8 7 5 1-5-5-6-10-3-10-1-7v-28l3-17 5-10 7-6 6-2h11l7 3 2 4-8-4h-14l-6 4-6 9-3 9-2 18v14l2 14 4 12 8 11 4 3h8l8-3 5-5 4-5 4-10 3-20v-17l-2-18-4-12-8-9-7-3z" fill="#D59B3D"/>
<path transform="translate(1223,1228)" d="m0 0h98l-7 11-6 10-3 7-4-2-11-8-3-1h-23v33l15-1 8-10 3-5h2v39l-8-8h-20v43l22-2 9-4 7-8 5-9 2 2 5 13 9 12 2 3-7 1h-94l2-4 10-7 1-4v-36l-12 4h-3l2-4 12-4h2v-3l-13 3-5 3h-2l2-6 5-5 6-3h6v-37l-5-5-9-7zm33 9-1 3 1 38h4l1-36 1-1h23l7 2 7 5-2-5-6-5-3-1zm43 11m-43 38-1 2v47l5 1 1-47h20l-1-3z" fill="#D59B3D"/>
<path transform="translate(1292,1082)" d="m0 0h55l2 2-7 10-8 16-5-2-11-8-4-1h-20l-1 33 16-1 10-14h2v38h-2l-6-8-1 1h-19v42l19-1 10-3 6-5 7-12h3l3 10 7 11 6 8-2 1h-100l6-7 7-5 1-40-13 5h-2l2-4 10-4h3v-4l-13 4-5 2 1-6 7-6 6-2h4l-1-38-10-8-3-3zm-6 9-2 1v40h5l1-1v-36h21l9 2 8 5-2-4-8-6-4-1zm42 11m-44 38v50h6v-46l21 1-2-4-1-1z" fill="#D59B3D"/>
<path transform="translate(956,1082)" d="m0 0h21l34 1-12 20-3 7-4-2-12-8-4-1h-22l1 32h15l11-14 2 3v35l-7-6-2-2-1 1h-19l1 42 19-1 11-4 8-9 5-8 2 2 4 11 9 13 3 4-102 1 2-4 11-8 1-40-15 5v-3l8-4 7-1v-4l-14 4-5 3 1-5 4-6 9-4 4-1v-36l-5-5-7-5v-2zm-9 9-1 1v40h6v-37h20l10 2 7 4-2-4-7-5-4-1zm42 10m-42 39-1 1v49h6v-46l19 1 2 1-2-5-1-1z" fill="#D59B3D"/>
<path transform="translate(1553,1081)" d="m0 0h24l18 4h8l4-2h3l-2 5-7 14-4 12-4-2-3-5-3-7-5-6-8-4-10-1-11 3-5 4-3 6v10l4 7 8 5 19 5 17 5 10 6 7 8 4 9v17l-4 10-8 9-8 5-11 3h-18l-29-6h-9l-9 2 6-11 6-12 4-10h3l4 12 6 8 9 6-6-5-6-9-2-8 2-1 2 1 4 10 6 7 9 7 4 1h8l10-3 6-4 4-6 1-9-3-9-8-7-9-4-32-8-10-6-5-6-4-11v-13l4-11 7-8 9-5z" fill="#D59B3D"/>
<path transform="translate(878,1082)" d="m0 0 29 1-8 16-3 7-1 5-3-1-7-14-8-4h-16l1 97 2 2v-95l1-1h13l7 3 2 4-13-3h-6v33l1 57 9 11 4 4v2h-48v-3l40-1-1-2-43-1v-2l11-8 1-91-14 2-5 3-3 6-2 6-3-1 2-9 4-6 6-3 4-1h11v-3h-12l-9 2-5 4-3 8-1 6h-2l-9-20-4-9z" fill="#D59B3D"/>
<path transform="translate(763,1225)" d="m0 0h11l14 3 13 4 7-1 5-1-1 5-8 15-6 14-3-3-4-11-5-8-6-5-4-2-10-1-9 3-8 7-5 10-2 7-1 8v30l3 16 6 12 5 6 9 5 4 1h9l9-3 8-7 4-8 4-16 3-2 4 2v8l-3 14-6 10-7 6-10 4-5 1h-16l-12-3-10-5-9-9-8-14-4-14-1-7v-19l4-16 7-14 8-10 10-7 9-4z" fill="#D59B3D"/>
<path transform="translate(1158,1225)" d="m0 0h12l12 2 15 5 8-1 5-1-2 6-14 28-3-3-3-10-6-10-7-5-12-2-8 2-6 4-5 6-5 12-2 14v25l3 16 4 11 7 9 10 5 4 1h7l10-3 6-4 5-7 6-21 3-1 3 2v11l-3 12-7 11-9 6-12 3h-15l-12-3-12-6-7-7-7-11-4-11-2-9-1-19 2-14 5-14 8-12 9-9 14-7z" fill="#D59B3D"/>
<path transform="translate(1099,1227)" d="m0 0 2 2-10 10-1 3-1 94 3-1v-91l3-6 8-7 2 1-1 4-6 5-1 2v93l14 14v2h-49v-3l41-1-1-2-6-1h-38l1-3 9-7 1-2v-95l-4-2-8-7v-1z" fill="#D59B3D"/>
<path transform="translate(857,1394)" d="m0 0h25l-1 3h-2l4 11 10 19v2h2l-1-12-1-16-5-7h19l2 5-3 3-2 4-1 13h-1v-18l3-4-3 1-2 8v20l-1 25-8 1-5-8-14-27-3-6v30l7 10 3 5-1 1h-46l-4-2v-2l28-1 2-4 2-2 1-5v-42l-4-3zm17 4 1 5 18 35 2 1-3-9-14-27-3-5zm-7 10m1 35 1 3z" fill="#D59B3D"/>
<path transform="translate(789,1393)" d="m0 0h16l16 2 1 3-7 13-5-2-4-5-5-2-7 1-3 2 1 5 5 5 15 5 10 5 3 7v9l-4 8-7 6-9 2-16-1-14-3-2-4 5-9 4-6 5 4 4 6 7 4h7l5-3 2-4-1-5-6-3-19-5-5-5-4-10v-7l4-8 5-4zm4 4-6 5-1 7 2-2 2-5 2-1 11-1-1-2zm24 1v2h2v-2zm-1 2 1 2zm-1 2-1 5 2-2zm-28 7m1 1m-4 13 4 3 4-1-5-2zm8 3 3 2 9 1-4-2zm28 1v12l-3 6v3l4-5 1-2v-12zm-16 2m3 1m8 18-2 3 3-1zm-35 2m3 1 4 2h10v-1zm28 0-9 2v1l10-1 1-2z" fill="#D59B3D"/>
<path transform="translate(1118,1393)" d="m0 0h14l9 3 5 5 4 6 2 8v20l-4 11-6 7-5 3-11 1-10-2-4-4-7-11-3-9v-16l3-10 4-6 6-5zm3 5-4 2-4 6-2 12v12l2 8 2 3v-31l4-7 3-3 4-2zm4 3-5 3-3 5-1 3v21l2 9 3 5 2 1h7l5-4 3-9v-25l-4-6-5-3zm17 0m1 1 2 5 2 9v15l-2 9-5 7v2l-10 3-5 1v1l11-1 6-4 6-9 1-3v-26l-4-8zm-25 50 4 1z" fill="#D59B3D"/>
<path transform="translate(991,1393)" d="m0 0 23 1 2 1-1 6-5 9h-2v-2l-5-2-5-3h-10l-1 15 7-1 5-6 3-1 1 1 1 21-5-2-6-5-6-1 1 2-1 22 11-2 8-7 3-2 4 8 3 4v2h-49l4-4 1-19h-6l-3-3v-2l6-4h3l-1-20-4-3v-2zm21 4 1 2zm-29 1-1 3v17h2l1-18 14 1-1-3zm28 1-1 4 2-1zm-2 4-1 4 2-1zm-39 20v2l2-1zm12 0v25l2-1 1-24z" fill="#D59B3D"/>
<path transform="translate(1065,1393)" d="m0 0h10l14 5 5 6 1 3v10l-6 9-8 6-16 10-3 2h23l5-5h3l1 4v9h-44l-1-3 4-8 6-7 15-11 6-7 1-6-4-7-4-1-9 3v5l7 3 4 1v2h-3l1 5h-11l5 2-1 2h-6l-6-5-4-8 1-9 3-5 7-4zm4 4-7 3-2 5 1 4 4-7 2-1 9-1-1-2zm7 3m14 5m1 2-2 10-7 8-11 7-7 5h3l14-8 8-7 3-4v-11zm-30 3m1 28-3 3 1 2 4-5z" fill="#D59B3D"/>
<path transform="translate(1174,1393)" d="m0 0h11l11 4 6 4 4 8-1 8-6 9-11 8-13 8-3 2h24l4-5h2l-1 12-1 1h-40l-1-3 4-8 6-7 11-8 9-8 1-2v-8l-1-5h-14v8l9 3-1 6h-4l-7 1 4 3-5 1-6-4-4-6-1-9 4-8 6-4zm1 5-6 7v5h2l3-8 2-1h11v-2l-2-1zm26 6v8l-3 7-8 8-14 8-8 8h3l7-6 15-9 7-7 4-8-1-7z" fill="#D59B3D"/>
<path transform="translate(1229,1394)" d="m0 0 12 1-5 13-7 12-6 9 2 1 2-5 6-9 9-20h2l-1 6-4 9 1 1 6-6 3 1v26l10 2 4 3-1 5-1 1h-6l-3-4v-2l-4-1 2 10 4 2 4 5v2l-4 1h-19l-2-4h21v-2l-20 1 3-4 1-7h-24l-2-5 5-9 6-12 4-14zm8 20-8 13-3 4v2h12l1-16zm-16 17m-1 1m39 6 1 3z" fill="#D59B3D"/>
<path transform="translate(932,1392)" d="m0 0h10l13 3h4l-2 6-1 4 4-8h2l-1 5-6 13-5-5-2-6-8-2-7 1-5 10-1 5v10l3 10 5 8 3 2h6l5-4 3-7 1-5 4 1-1 11 3-10 2-1v7l-4 10-7 6-3 1h-10l-8-1-10-9-5-8-2-6-1-11 2-11 5-10 8-7zm1 5-5 3-5 10-1 4v17l4 10 4 4-2-6-3-8-1-10 3-13 5-7 2-1h10l-1-2zm-3 48m24 0v3z" fill="#D59B3D"/>
<path transform="translate(828,1394)" d="m0 0h22l1 3-3 3v48l2 2 4 2h-19l-5-1 2-4v-48l-4-3zm15 7v13h1v-13z" fill="#D59B3D"/>
<path transform="translate(1507,1082)" d="m0 0 3 2 1 6v10l-3 10-7 8-10 6-4 2h-4l2-4 6-9 1-4v-8l-3-7 1-4 12-5z" fill="#D59B3D"/>
<path transform="translate(1022,1232)" d="m0 0 5 1 8 7 6 9 5 10 3 12 1 7v22l-3 14-5 12-7 10-8 8-9 5-7 3-6 1h-18l-12-4-7-5 2-1 14 5 6 1h11l13-3 9-5 9-8 7-11 5-13 2-13v-13l-2-15-5-14-5-9-6-7-6-5z" fill="#D59B3D"/>
<path transform="translate(1225,1095)" d="m0 0 4 2 6 7 5 10 3 13 1 9v11l-3 19-5 13-6 9-8 8-14 7-14 3h-50v-3l46-1 13-2 10-4 9-6 8-9 6-13 3-13 1-17-3-20-5-12z" fill="#D59B3D"/>
<path transform="translate(1459,1093)" d="m0 0 5 4 4 9 1 5v7l-3 8-5 8-7 6-11 6 3 9 6 12 7 10 9 10 8 8 8 5v3l-15 5-23 11-4-1 9-6 17-8 8-3-16-16-9-13-8-14-5-12 1-3 13-7 6-5 6-11v-14l-4-9z" fill="#D59B3D"/>
<path transform="translate(781,1093)" d="m0 0 5 5 3 5 1 4v15l-4 8-6 7-13 8-2 1 1 5 8 16 8 12 11 12 13 10-1 2-19 7-16 8-5 1 2-4 23-11 9-2-16-16-9-12-9-16-5-11v-4l9-4 8-6 6-7 3-7v-13l-4-9z" fill="#D59B3D"/>
<path transform="translate(1610,1142)" d="m0 0 4 2 6 9 2 5v18l-4 10-7 9-9 7-8 4-13 3h-12l-20-4-9-2h-18l1-3 5-2h10l28 6h19l12-4 8-6 7-7 5-11 1-6v-8l-3-11-5-7z" fill="#D59B3D"/>
<path transform="translate(1131,1089)" d="m0 0 4 1-3 3-5 3h-2l-3 10-1 100h-21v-3l17-1v-69l1-30 3-7 6-5z" fill="#D59B3D"/>
<path transform="translate(525,1148)" d="m0 0 4 1 4 5 3 7 1 6v8l-2 9-6 10-8 7-9 4-6 1h-74v-3l70-1 11-2 9-5 6-7 4-10v-15z" fill="#D59B3E"/>
<path transform="translate(1163,1237)" d="m0 0h7l8 3 5 4 1 4-11-6-6-1-8 2-6 5-5 12-2 9v31l3 15 6 12 10 9v2l-6-2-8-8-6-12-3-12-1-9v-23l2-12 4-11 7-8z" fill="#D59B3D"/>
<path transform="translate(766,1237)" d="m0 0h8l8 3 6 7h-3l-8-5-8-1-8 3-6 7-4 12-2 17 1 23 4 15 4 8 4 5 6 5v2l-5-2-7-6-6-10-4-15-1-6v-31l4-16 6-8 8-6z" fill="#D59B3D"/>
<path transform="translate(1343,1171)" d="m0 0 5 5 9 13 8 9-4 8h-102v-3l99-1 1-3-8-11-8-14z" fill="#D59B3D"/>
<path transform="translate(1314,1317)" d="m0 0 3 1 7 11 11 14-1 6-3 3h-100v-3l99-1-1-6-8-10-7-12z" fill="#D59B3D"/>
<path transform="translate(813,1308)" d="m0 0 4 1-1 10-4 13-6 10-9 8-10 4-5 1h-18l-12-4-8-5 2-1 15 5 5 1h12l12-3 8-5 7-7 4-8z" fill="#D59B3D"/>
<path transform="translate(1210,1308)" d="m0 0h3l-1 13-4 12-7 11-10 7-13 4h-17l-10-3-9-5-1-2 9 3 13 3h12l12-3 9-6 6-7 4-9 3-17z" fill="#D59B3D"/>
<path transform="translate(1534,1139)" d="m0 0 5 2 10 5 30 8 10 4 5 4 3 6-5-2-10-6-26-7-15-5-7-6z" fill="#D59B3D"/>
<path transform="translate(1564,1092)" d="m0 0h8l9 3 5 5 3 4-1 2-8-6-9-4h-7l-8 4-3 5v8l7 8 1 3-4-1-5-4-3-5-1-8 4-8 5-4z" fill="#D59B3D"/>
<path transform="translate(1514,1083)" d="m0 0h3l1 2 1 12-2 11-4 8-4 5-10 7-8 4h-4l2-4 13-7 7-7 5-11z" fill="#D59B3D"/>
<path transform="translate(1011,1439)" d="m0 0 4 2 7 10-1 5-4 1h-46l-3-3 51-1-7-11z" fill="#D59B3D"/>
<path transform="translate(986,1118)" d="m0 0 3 1 1 4v36l-4-1-2-3 1-33z" fill="#D59B3D"/>
<path transform="translate(1203,1440)" d="m0 0 3 1v15l-4 1h-37l-3-2v-2h40z" fill="#D59B3D"/>
<path transform="translate(1296,1263)" d="m0 0h2l1 6v35h-4v-33z" fill="#D59B3D"/>
<path transform="translate(1051,1453)" d="m0 0h44v4h-41z" fill="#D59B3D"/>
<path transform="translate(817,1234)" d="m0 0h3l-2 6-10 19-4 8-3 2 1-8 14-26z" fill="#D59B3D"/>
<path transform="translate(1214,1234)" d="m0 0h2l-1 5-12 23-4 7h-2l1-7 13-25z" fill="#D59B3D"/>
<path transform="translate(1325,1117)" d="m0 0 2 1v41h-3v-39z" fill="#D59B3D"/>
<path transform="translate(1613,1086)" d="m0 0h3l-2 6-8 16-5 9-3-1 4-11 10-18z" fill="#D59C40"/>
<path transform="translate(910,1086)" d="m0 0h2l-1 5-9 19-3 6h-2l1-8 9-19z" fill="#D59B3D"/>
<path transform="translate(1015,1086)" d="m0 0 1 2-4 7-12 20-2-1 1-5 8-14 5-7z" fill="#D59B3E"/>
<path transform="translate(1323,1232)" d="m0 0h2l-2 6-8 13-5 9h-3l2-7 11-18z" fill="#D59B3D"/>
<path transform="translate(1352,1087)" d="m0 0 1 4-7 11-7 12h-3l1-5 11-18z" fill="#D59B3D"/>
<path transform="translate(902,1451)" d="m0 0 1 4-4 2h-6l-2-3 5-1h6z" fill="#D59B3D"/>
<path transform="translate(901,1446)" d="m0 0" fill="#D59B3D"/>
<path transform="translate(1178,1421)" d="m0 0 2 1z" fill="#D59B3D"/>
<path transform="translate(967,1342)" d="m0 0" fill="#D59B3D"/>
<path transform="translate(1609,1141)" d="m0 0" fill="#D59B3D"/>
<path transform="translate(1224,1094)" d="m0 0" fill="#D59B3D"/>
</svg>
